<?xml version="1.0" standalone="no"?>
<!DOCTYPE svg PUBLIC "-//W3C//DTD SVG 20010904//EN"
 "http://www.w3.org/TR/2001/REC-SVG-20010904/DTD/svg10.dtd">
<svg version="1.0" xmlns="http://www.w3.org/2000/svg"
 width="538.000000pt" height="538.000000pt" viewBox="0 0 538.000000 538.000000"
 preserveAspectRatio="xMidYMid meet">
<metadata>
Created by potrace 1.11, written by Peter Selinger 2001-2013
</metadata>
<g transform="translate(0.000000,538.000000) scale(0.100000,-0.100000)"
fill="#000000" stroke="none">
<path d="M0 5264 c0 -5 46 -90 80 -149 17 -29 33 -59 108 -195 20 -36 43 -78
53 -95 10 -16 29 -51 42 -76 14 -25 35 -63 48 -85 12 -21 38 -68 57 -104 19
-36 38 -69 42 -75 4 -5 18 -30 32 -55 14 -25 83 -148 153 -275 71 -126 138
-248 150 -270 12 -22 37 -65 54 -95 18 -30 37 -67 44 -82 6 -16 15 -28 19 -28
4 0 8 -5 8 -10 0 -9 26 -57 189 -345 24 -44 52 -95 60 -112 8 -18 19 -33 23
-33 4 0 8 -5 8 -11 0 -10 123 -237 151 -279 5 -8 15 -27 22 -42 6 -16 15 -28
19 -28 4 0 8 -5 8 -10 0 -6 27 -58 60 -117 33 -58 60 -107 60 -109 0 -3 10
-21 23 -42 13 -20 40 -66 59 -102 48 -88 84 -152 129 -233 l39 -69 0 -1014 0
-1014 1000 0 1000 0 1 128 c1 70 1 131 0 136 -1 6 -2 111 -1 235 1 125 2 233
1 241 0 8 0 116 0 240 1 124 1 232 0 240 0 8 0 116 0 240 1 124 1 232 0 240 0
8 0 90 0 183 l0 167 40 78 c23 42 56 104 74 137 18 33 57 107 88 165 30 58 70
134 89 170 110 206 228 429 259 490 13 25 38 71 55 103 18 31 30 57 27 57 -3
0 1 7 8 16 14 16 86 152 152 284 17 36 35 67 38 70 3 3 17 28 31 55 25 50 97
187 171 325 22 41 57 108 78 149 21 40 43 79 50 87 6 8 8 14 4 14 -5 0 -2 8 6
18 9 9 30 46 48 82 34 67 105 201 171 325 21 39 59 111 85 160 26 50 74 140
106 201 32 61 59 114 59 117 0 4 -467 7 -1038 7 l-1038 0 -71 -142 c-39 -79
-71 -147 -71 -152 0 -5 -4 -12 -9 -15 -4 -3 -96 -182 -203 -398 -146 -294
-198 -389 -207 -381 -7 5 -12 13 -11 16 1 4 -13 38 -30 76 -18 38 -32 70 -32
72 0 1 -15 35 -34 76 -28 60 -176 393 -258 578 -11 25 -33 72 -48 105 -15 33
-38 84 -50 113 l-22 52 -1129 0 c-621 0 -1129 -2 -1129 -6z"/>
</g>
</svg>
